# xmcd
# 
# Track frame offsets:
#     150
#     14962
#     25400
#     36120
#     50125
#     64442
#     78360
#     89930
#     102259
#     116027
#     129095
#     142705
#     157362
#     173752
#     185977
#     199637
#     215062
#     231892
#     249437
#     264577
#     280475
#     292770
#     308137
#     317895
#     332685
# 
# Disc length: 4577
# 
# Revision: 1
# Processed by: cddbd v1.5.2PL0 Copyright (c) Steve Scherf et al.
# Submitted via: fre:ac v1.0.17
# 
DISCID=8611df19
DTITLE=B. B. KING - THE COMPLETE RPM - KENT RECORDING BOX
DYEAR=2015
DGENRE=Blues
TTITLE0=The Jungle
TTITLE1=Long Gone Baby
TTITLE2=Treat Me Right
TTITLE3=Bad Breaks
TTITLE4=Growing Old
TTITLE5=Sweet Thing
TTITLE6=Soul Beat
TTITLE7=Worry, Worry, Worry - overdubbed version
TTITLE8=The Woman I Love - overdubbed version
TTITLE9=Blues For Me
TTITLE10=3 O'Clock Blues - overdubbed version
TTITLE11=Slow Burn
TTITLE12=Your Fool
TTITLE13=Shoutin' The Blues
TTITLE14=House Rocker (aka Boogie Rock)
TTITLE15=Worried Life
TTITLE16=Walking Dr. Bill - overdubbed version
TTITLE17=That Evil Child
TTITLE18=Tell Me Baby
TTITLE19=Long Nights (The Feeling They Call The Blues)
TTITLE20=I'll Survive
TTITLE21=Precious Lord
TTITLE22=Swing Low Sweet Chariot
TTITLE23=Don't Get Around Much Any More
TTITLE24=Recession Blues
EXTD=
EXTT0=
EXTT1=
EXTT2=
EXTT3=
EXTT4=
EXTT5=
EXTT6=
EXTT7=
EXTT8=
EXTT9=
EXTT10=
EXTT11=
EXTT12=
EXTT13=
EXTT14=
EXTT15=
EXTT16=
EXTT17=
EXTT18=
EXTT19=
EXTT20=
EXTT21=
EXTT22=
EXTT23=
EXTT24=
PLAYORDER=
